<?xml version="1.0" standalone="no"?>
<!DOCTYPE svg PUBLIC "-//W3C//DTD SVG 20010904//EN"
 "http://www.w3.org/TR/2001/REC-SVG-20010904/DTD/svg10.dtd">
<svg version="1.0" xmlns="http://www.w3.org/2000/svg"
 width="488.000000pt" height="322.000000pt" viewBox="0 0 488.000000 322.000000"
 preserveAspectRatio="xMidYMid meet">

<g transform="translate(0.000000,322.000000) scale(0.100000,-0.100000)"
fill="#000000" stroke="none">
<path d="M2850 3213 c-8 -3 -64 -28 -125 -56 -84 -40 -121 -52 -157 -52 -27 0
-48 -4 -48 -8 0 -4 8 -22 17 -40 9 -18 15 -49 14 -70 -1 -21 4 -48 12 -60 19
-29 0 -188 -23 -195 -35 -11 -41 -71 -11 -101 10 -10 24 -35 31 -55 17 -53 51
-88 109 -116 28 -13 51 -26 51 -29 -1 -18 -22 -28 -83 -40 -64 -13 -74 -12
-185 15 -78 19 -122 34 -132 47 -12 14 -32 20 -79 22 -35 2 -66 6 -69 9 -9 9
-50 7 -56 -3 -6 -9 -120 8 -231 34 -139 33 -229 44 -243 30 -11 -10 -11 -18
-3 -33 12 -23 24 -28 96 -36 28 -4 110 -16 183 -28 127 -20 134 -23 148 -50 9
-18 22 -28 37 -28 14 0 29 -11 40 -29 10 -17 26 -33 37 -36 11 -4 20 -11 20
-16 0 -25 76 -90 128 -109 70 -27 173 -25 216 4 38 24 27 30 -15 9 -22 -12
-57 -18 -99 -18 -81 0 -171 40 -201 88 l-19 32 42 10 c41 10 44 9 73 -23 36
-39 92 -55 150 -42 32 7 45 5 72 -11 18 -12 33 -23 33 -25 0 -15 -33 -79 -55
-108 -27 -35 -88 -57 -197 -71 -122 -15 -385 -265 -376 -357 3 -33 2 -33 -54
-44 -82 -16 -90 -21 -86 -46 5 -34 63 -68 117 -68 28 0 67 -10 99 -25 64 -29
66 -30 86 -9 18 17 21 69 6 79 -7 4 -9 -2 -5 -18 4 -16 1 -30 -10 -41 -21 -20
-28 -20 -68 1 -18 10 -59 20 -92 24 l-60 6 63 1 c37 1 78 -4 99 -13 44 -18 56
-12 16 8 -15 8 -66 17 -112 20 -46 4 -90 12 -97 18 -24 20 -15 38 23 45 31 6
39 3 55 -16 20 -25 23 -20 7 13 -8 17 -5 16 15 -6 15 -16 26 -22 26 -15 0 8
-5 19 -12 26 -26 26 5 23 61 -7 32 -17 68 -31 79 -31 35 0 68 38 115 133 44
90 49 96 96 116 27 11 80 28 118 36 37 8 78 17 90 21 17 5 31 -2 56 -27 28
-28 36 -47 46 -103 13 -73 30 -114 55 -135 13 -11 7 -20 -49 -68 -52 -44 -65
-61 -65 -84 0 -15 -4 -31 -10 -34 -20 -12 -10 -53 18 -75 l27 -21 -113 6
c-157 8 -326 30 -532 71 -96 18 -220 40 -275 49 -55 8 -126 22 -157 32 l-58
17 0 42 c0 40 -2 43 -32 50 -45 10 -100 7 -108 -6 -11 -18 9 -132 27 -152 9
-11 30 -18 50 -18 29 0 36 5 48 34 l15 35 42 -12 c112 -33 8 -139 -163 -166
-35 -6 -195 -11 -355 -11 l-292 0 -95 -29 c-81 -25 -128 -32 -307 -45 -117 -8
-215 -18 -218 -22 -7 -6 92 -2 286 13 104 7 103 27 24 -263 -33 -122 -121
-311 -177 -382 -70 -87 -82 -219 -31 -320 13 -26 47 -73 75 -105 28 -32 51
-67 51 -78 0 -18 -4 -20 -33 -14 -66 15 -124 54 -156 105 -18 31 -21 50 -21
156 0 250 -41 790 -77 1007 -23 143 -8 165 133 193 134 27 257 22 434 -16 142
-30 170 -33 330 -34 172 0 351 21 390 46 10 6 4 7 -20 3 -186 -32 -243 -37
-410 -32 -140 4 -200 11 -300 33 -199 44 -452 34 -533 -20 -51 -34 -53 -57
-29 -233 12 -87 26 -205 32 -263 15 -160 40 -603 40 -713 0 -133 27 -179 135
-229 47 -22 62 -23 245 -22 168 1 478 26 502 40 4 3 -15 33 -41 68 -118 156
-102 344 42 502 28 32 115 108 192 169 222 178 276 245 326 410 17 55 42 120
55 144 13 24 24 53 24 64 0 19 4 19 70 13 39 -3 162 -24 273 -45 237 -47 382
-67 564 -81 73 -5 153 -15 178 -21 62 -16 156 -6 191 19 21 15 53 22 117 27
49 3 132 17 185 30 87 22 236 55 248 55 2 0 4 -37 4 -82 0 -184 67 -367 212
-576 107 -155 141 -339 101 -548 -9 -49 -17 -111 -17 -138 -1 -42 3 -52 26
-69 27 -20 31 -20 220 -8 106 7 338 16 515 20 304 6 323 7 350 27 77 56 93
204 47 430 l-29 139 3 340 c2 220 7 344 14 352 7 9 7 13 0 13 -6 0 -14 17 -18
38 -9 51 -30 89 -59 108 -20 13 -42 15 -127 9 -95 -6 -112 -4 -222 24 -65 17
-137 31 -160 31 -23 0 -98 -14 -166 -32 -113 -28 -141 -31 -282 -32 -87 -1
-158 -5 -158 -10 0 -4 75 -6 168 -4 146 5 182 9 285 37 65 17 131 31 146 31
16 0 73 -11 127 -25 160 -41 183 -44 264 -34 115 16 150 -6 169 -105 9 -47 8
-48 -23 -67 -40 -24 -93 -24 -198 1 -98 23 -149 24 -238 5 -94 -21 -167 -19
-236 7 -52 19 -87 22 -304 27 -242 6 -246 6 -301 34 -82 40 -90 53 -41 67 36
11 41 10 65 -14 26 -26 80 -36 92 -17 9 16 25 160 19 176 -8 20 -70 30 -99 17
-21 -10 -24 -19 -27 -73 l-3 -62 -160 -32 c-88 -18 -187 -40 -220 -49 -33 -8
-107 -21 -165 -28 -105 -11 -106 -11 -140 13 -19 13 -37 25 -39 26 -2 1 4 18
13 38 29 60 55 144 61 193 5 38 -1 67 -29 146 l-35 100 50 54 c27 30 64 85 82
123 33 71 43 81 54 52 11 -34 55 -84 80 -94 39 -15 99 7 144 52 27 27 48 39
68 39 16 0 51 5 78 11 42 9 60 7 143 -15 52 -15 137 -36 188 -48 l92 -22 21
21 c24 24 18 43 -14 43 -12 0 -77 15 -144 34 -67 19 -154 40 -192 46 -67 13
-69 14 -80 50 -10 36 -14 38 -64 45 -127 17 -146 16 -158 -4 -19 -29 -70 -9
-127 48 -36 36 -64 53 -115 70 -74 25 -93 41 -50 41 53 1 109 35 128 77 15 34
21 39 45 35 21 -3 36 3 56 23 23 24 26 32 20 72 -5 39 -1 58 31 127 31 70 37
93 41 177 6 121 -14 173 -80 215 -23 15 -45 30 -48 33 -3 3 -27 14 -55 24 -48
16 -113 21 -145 10z m151 -33 c30 -17 69 -37 86 -45 65 -30 87 -102 73 -236
-11 -105 -68 -239 -101 -239 -11 0 -29 -4 -39 -10 -17 -9 -17 -7 -4 43 17 66
17 70 -2 63 -13 -5 -14 -1 -7 27 12 49 8 139 -7 167 -8 14 -13 29 -12 34 3 9
-105 3 -143 -9 -11 -3 -2 4 20 15 26 14 52 19 74 16 25 -4 31 -2 24 5 -13 13
-56 8 -153 -15 -65 -16 -141 -14 -170 5 -12 7 -11 9 6 9 35 0 108 29 139 55
28 24 26 23 -31 -5 -35 -18 -83 -33 -115 -37 -52 -5 -57 -4 -77 22 -12 15 -22
31 -22 35 0 4 20 10 44 12 25 3 93 28 153 56 157 73 184 77 264 32z m-411
-198 c0 -15 -4 -33 -9 -40 -11 -18 -24 32 -16 59 9 26 25 14 25 -19z m146 -7
c55 0 80 -4 77 -11 -3 -8 16 -7 64 2 92 18 99 18 83 -1 -10 -13 -9 -15 8 -15
12 0 23 -9 27 -21 12 -36 6 -126 -10 -165 -15 -35 -14 -36 6 -31 23 6 23 0 3
-78 -6 -26 -5 -28 17 -21 60 19 67 18 79 -3 14 -28 5 -57 -25 -77 -29 -19 -63
-11 -76 19 -9 22 -10 22 -5 -1 2 -12 0 -38 -5 -58 -25 -88 -174 -107 -311 -38
-88 45 -114 103 -104 233 4 47 12 91 18 98 6 7 23 13 39 13 16 0 29 3 29 6 0
19 -24 44 -42 44 -19 0 -20 4 -13 58 9 71 11 75 38 60 12 -7 59 -12 103 -13z
m-116 -135 c-20 -13 -40 -13 -40 0 0 6 12 10 28 10 21 0 24 -2 12 -10z m-70
-170 c0 -22 -2 -40 -5 -40 -10 0 -26 53 -21 67 11 27 26 11 26 -27z m-685
-165 c55 -13 123 -26 150 -30 71 -10 85 -14 85 -31 0 -17 11 -18 -101 5 -52
11 -139 25 -194 32 -116 14 -145 23 -145 44 0 20 59 14 205 -20z m371 -50 c-7
-18 -4 -18 28 -4 33 16 61 -4 46 -31 -6 -10 -10 -32 -10 -48 0 -36 -17 -51
-63 -59 -48 -7 -75 11 -102 70 -29 61 -22 74 38 80 23 2 48 4 56 5 8 1 11 -4
7 -13z m583 -50 c15 -15 14 -18 -4 -31 -14 -11 -32 -14 -58 -9 -22 3 -36 2
-33 -3 8 -13 -84 -6 -97 7 -8 8 -2 11 19 11 17 0 35 -5 42 -12 9 -9 12 -9 12
1 0 7 4 10 9 7 5 -4 12 8 16 25 7 29 9 31 43 25 20 -3 43 -13 51 -21z m-709
-5 c8 -16 8 -20 -4 -20 -9 0 -20 9 -26 20 -8 16 -8 20 4 20 9 0 20 -9 26 -20z
m606 -70 c208 -49 389 -92 402 -95 20 -5 33 -35 15 -35 -15 0 -815 179 -819
183 -6 6 7 37 15 37 4 0 178 -40 387 -90z m140 35 c-22 -17 -84 -31 -93 -21
-4 3 5 6 18 6 14 0 34 7 45 15 10 8 26 14 34 14 11 0 10 -3 -4 -14z m89 -14
c44 -20 108 -81 84 -81 -8 1 -65 13 -127 29 l-113 28 40 12 c22 6 43 16 46 21
9 14 25 12 70 -9z m-528 -7 c58 -12 80 -20 76 -29 -2 -8 0 -22 6 -33 9 -17 7
-21 -12 -26 -69 -18 -143 4 -168 50 -12 22 -7 54 8 54 4 0 45 -7 90 -16z m403
-89 c140 -32 257 -59 259 -61 8 -7 -25 -38 -56 -51 -42 -17 -43 -17 -43 12 0
36 -17 31 -24 -7 -18 -95 -116 -236 -184 -265 -39 -16 -68 -10 -145 30 -62 33
-117 87 -117 116 0 9 14 39 31 65 33 49 84 196 69 196 -5 0 -12 -16 -16 -35
-6 -34 -6 -34 -35 -20 -34 18 -65 71 -46 79 15 6 -1 9 307 -59z m384 -7 c13
-18 16 -19 16 -5 0 19 35 24 46 6 5 -8 9 -8 14 1 6 9 13 7 26 -8 12 -14 20
-18 25 -11 10 18 29 1 29 -26 0 -13 8 -28 17 -34 43 -24 -64 -69 -134 -56 -70
13 -103 32 -103 59 0 14 5 28 10 31 6 3 10 19 10 36 0 35 22 39 44 7z m-80
-72 c-3 -8 4 -23 15 -33 21 -19 21 -20 2 -37 -11 -10 -27 -16 -37 -14 -19 3
-40 61 -24 66 6 2 10 10 10 18 0 8 9 14 20 14 12 0 17 -5 14 -14z m366 -27
c137 -30 270 -72 270 -85 0 -20 -21 -18 -150 17 -63 16 -132 35 -152 40 -22 6
-38 16 -38 24 0 17 9 18 70 4z m-419 -41 c18 -42 39 -45 77 -13 26 22 34 24
58 15 l27 -11 -23 -24 c-28 -30 -80 -55 -114 -55 -30 0 -81 44 -91 78 -5 17
-1 24 17 31 33 14 33 14 49 -21z m-571 -83 c0 -13 14 -40 31 -59 32 -37 157
-106 191 -106 12 0 23 -11 29 -29 6 -16 17 -32 25 -35 18 -7 18 2 -1 21 -17
17 -17 44 1 50 6 2 24 -31 40 -74 40 -107 40 -200 0 -296 -35 -84 -66 -111
-118 -103 -54 9 -107 36 -114 60 -10 31 91 118 128 111 15 -2 30 0 33 5 3 6
-5 10 -19 10 -14 0 -25 3 -24 8 2 4 -7 24 -20 44 -13 20 -30 69 -38 109 -8 40
-17 76 -20 81 -3 4 2 5 10 2 29 -11 17 4 -21 28 -21 12 -55 38 -75 56 -38 34
-52 34 -22 1 15 -17 14 -18 -12 -24 -49 -11 -168 -43 -189 -51 -18 -7 -19 -6
-5 12 8 10 0 6 -18 -10 -17 -16 -53 -70 -78 -120 -58 -113 -69 -126 -108 -126
-38 0 -132 52 -138 77 -7 27 9 63 28 63 19 0 74 31 74 42 0 4 -16 -2 -35 -13
-19 -12 -35 -16 -35 -11 0 20 142 161 208 206 58 40 80 48 157 62 49 8 96 19
105 24 24 15 30 12 30 -15z m-1066 -444 c3 -5 -4 -11 -17 -15 -37 -10 -57 -7
-57 9 0 17 65 22 74 6z m2194 -8 c2 -9 -9 -13 -37 -13 -30 0 -41 4 -41 16 0
11 9 14 37 12 20 -2 38 -9 41 -15z m-2178 -25 c0 -15 -40 -58 -53 -58 -15 0
-47 31 -47 46 0 8 16 14 43 17 23 2 45 4 50 5 4 1 7 -3 7 -10z m2180 -6 c0 -1
-7 -14 -16 -28 -16 -23 -15 -24 1 -17 13 4 16 3 11 -5 -11 -18 -21 -15 -55 14
-17 14 -31 21 -31 16 0 -5 7 -15 15 -22 13 -11 13 -15 3 -21 -23 -15 -28 -10
-28 30 l0 40 50 -2 c27 -1 50 -3 50 -5z m-2180 -52 c0 -14 -7 -20 -22 -20 -20
0 -21 1 -3 20 10 11 20 20 22 20 1 0 3 -9 3 -20z m-71 -4 c9 -11 8 -15 -5 -20
-23 -9 -24 -8 -24 14 0 23 13 26 29 6z m2226 -30 c16 -12 17 -16 6 -30 -18
-22 -37 -20 -63 6 l-22 22 24 7 c14 4 28 7 31 8 3 1 14 -5 24 -13z m-2181 -2
c22 -8 10 -24 -19 -24 -25 0 -39 12 -28 24 8 8 27 8 47 0z m1221 -59 c39 -13
66 -24 62 -24 -4 -1 -2 -7 5 -14 9 -11 19 -11 43 -3 16 6 32 14 35 18 10 12
29 -7 32 -32 3 -22 -2 -25 -47 -32 -76 -12 -175 8 -160 33 4 5 1 9 -4 9 -19 0
-51 39 -45 55 4 8 7 15 8 15 0 -1 33 -12 71 -25z m923 -56 c31 -7 60 -18 64
-23 4 -6 8 -31 8 -55 0 -115 77 -491 119 -585 24 -55 56 -85 150 -139 89 -52
130 -101 163 -194 25 -73 18 -102 -43 -169 -39 -43 -49 -61 -49 -89 0 -18 4
-36 9 -40 6 -3 8 9 4 29 -5 30 0 40 39 83 81 86 86 121 34 229 -39 82 -75 121
-154 165 -98 55 -129 92 -161 194 -16 49 -41 146 -55 215 -25 122 -53 346 -45
354 2 2 48 6 102 9 l97 6 0 -25 c0 -14 12 -107 26 -207 21 -144 24 -188 15
-213 -17 -46 -15 -52 33 -105 25 -28 48 -66 56 -93 7 -25 34 -72 62 -107 28
-34 63 -91 79 -127 20 -45 53 -90 107 -146 82 -87 125 -156 140 -222 l9 -41
-176 -7 c-97 -3 -232 -11 -301 -17 -197 -18 -213 -4 -179 163 17 82 20 127 17
228 -6 170 -34 252 -137 404 -115 170 -177 341 -188 515 l-6 93 52 -35 c30
-21 75 -41 109 -48z m-808 36 c-33 -19 -50 -18 -26 0 11 8 27 15 35 15 10 -1
7 -6 -9 -15z m-1275 -130 c-56 -179 -108 -245 -332 -422 -156 -123 -229 -200
-274 -291 -32 -63 -34 -73 -34 -167 0 -89 3 -106 27 -155 15 -30 41 -69 58
-87 16 -17 27 -34 22 -37 -26 -16 -563 -53 -600 -42 -11 4 -23 17 -26 30 -3
13 -32 55 -64 93 -73 86 -94 138 -95 223 0 76 18 123 72 194 59 78 129 227
157 334 13 53 31 117 39 142 9 25 19 72 23 105 l7 58 55 12 c30 7 91 22 134
34 66 17 107 21 248 21 92 0 168 -4 168 -9 0 -5 -6 -14 -14 -20 -7 -6 -30 -52
-51 -101 -57 -138 -147 -227 -264 -261 -50 -15 -72 -44 -97 -129 -23 -80 -56
-139 -108 -195 -38 -40 -49 -47 -56 -35 -7 11 -10 8 -10 -15 l0 -29 56 54 c73
71 97 111 128 205 33 102 46 119 97 134 131 38 216 131 289 314 12 32 32 63
44 69 11 7 84 15 161 19 117 5 150 10 200 32 33 13 63 25 66 26 4 0 -8 -46
-26 -104z m2560 70 c99 -26 109 -34 119 -90 5 -28 28 -148 51 -268 49 -247 59
-269 151 -337 32 -24 67 -62 82 -88 15 -26 72 -92 127 -147 55 -55 116 -121
134 -147 19 -27 38 -48 42 -48 7 0 -21 137 -47 229 -13 44 -29 69 -85 127 -61
62 -76 85 -115 180 -58 136 -65 187 -54 388 5 88 9 167 10 174 0 7 -4 11 -9 8
-5 -3 -12 -88 -16 -189 -9 -215 -3 -250 61 -398 38 -87 55 -114 113 -174 48
-49 72 -83 80 -110 14 -55 41 -168 41 -177 0 -17 -237 237 -266 285 -18 28
-60 73 -95 101 -34 28 -71 68 -82 89 -16 31 -82 336 -111 513 l-7 40 33 -4
c18 -2 83 6 143 18 117 22 132 22 273 -12 86 -20 123 -18 175 9 l28 14 -7
-328 -6 -328 32 -155 c36 -177 37 -284 1 -364 -32 -73 -55 -80 -267 -84 l-181
-4 -8 39 c-12 65 -66 153 -147 239 -50 53 -87 102 -103 138 -14 31 -49 88 -78
126 -30 39 -61 94 -70 123 -10 33 -30 66 -52 87 -34 33 -35 35 -29 95 4 40 -3
119 -20 242 -14 100 -26 187 -26 193 0 15 117 12 185 -5z"/>
<path d="M2870 3123 c8 -3 23 -12 33 -21 9 -8 17 -11 17 -6 0 17 -23 34 -44
33 -15 0 -17 -2 -6 -6z"/>
<path d="M3066 3062 c-8 -13 3 -42 16 -42 5 0 6 -6 2 -12 -5 -10 -4 -10 5 -2
9 8 8 17 -3 38 -7 15 -17 23 -20 18z"/>
<path d="M2800 2877 c0 -14 79 -51 88 -42 3 3 -5 16 -18 30 -25 27 -70 34 -70
12z m45 -7 c3 -6 -1 -7 -9 -4 -18 7 -21 14 -7 14 6 0 13 -4 16 -10z"/>
<path d="M2598 2779 c-22 -13 -24 -62 -2 -83 18 -19 55 -21 72 -4 18 18 14 56
-8 78 -22 22 -37 24 -62 9z m62 -35 c12 -32 4 -50 -16 -33 -10 8 -18 9 -27 0
-17 -13 -27 -5 -27 24 0 28 8 35 37 35 16 0 27 -8 33 -26z"/>
<path d="M2787 2752 c-25 -28 -21 -67 9 -91 15 -12 32 -21 39 -21 24 0 65 41
65 66 0 54 -78 85 -113 46z m90 -22 c10 -20 10 -29 -1 -44 -16 -25 -38 -33
-30 -12 8 20 -21 32 -40 17 -23 -20 -32 26 -10 50 24 27 65 21 81 -11z"/>
<path d="M2671 2650 c-15 -35 -8 -50 22 -49 21 0 21 1 -3 10 -23 10 -24 11 -7
23 18 14 22 32 9 40 -4 2 -14 -9 -21 -24z"/>
<path d="M3026 2598 c-23 -32 -11 -34 19 -4 18 18 21 26 11 26 -8 0 -22 -10
-30 -22z"/>
<path d="M2724 2559 c-3 -6 1 -18 9 -27 13 -12 19 -13 31 -3 8 7 12 19 9 27
-6 17 -39 19 -49 3z m36 -9 c0 -5 -4 -10 -10 -10 -5 0 -10 5 -10 10 0 6 5 10
10 10 6 0 10 -4 10 -10z"/>
<path d="M2640 2183 c0 -30 16 -47 36 -39 11 4 14 10 9 14 -6 4 -18 15 -28 25
-16 18 -17 18 -17 0z"/>
<path d="M2720 2131 c0 -12 4 -19 10 -16 6 3 10 1 10 -4 0 -6 7 -11 15 -11 8
0 15 5 15 12 0 6 -3 8 -6 5 -4 -4 -15 3 -25 15 l-19 21 0 -22z"/>
<path d="M2786 2101 c-5 -7 0 -18 10 -26 19 -13 44 -10 44 7 0 5 -5 6 -11 3
-6 -4 -16 1 -23 11 -10 12 -15 14 -20 5z"/>
<path d="M2445 2014 c-11 -8 -32 -14 -47 -11 -30 4 -38 -7 -12 -17 18 -7 84
19 84 33 0 14 -1 14 -25 -5z"/>
<path d="M622 1142 c-18 -64 -57 -198 -88 -297 -30 -99 -57 -202 -60 -230 l-4
-50 14 60 c8 33 41 148 74 255 74 236 113 380 104 380 -4 0 -22 -53 -40 -118z"/>
<path d="M3430 2846 c0 -4 20 -28 44 -52 50 -50 146 -188 146 -210 0 -8 5 -14
10 -14 16 0 -16 66 -64 134 -44 61 -136 157 -136 142z"/>
<path d="M3350 2734 c0 -5 8 -14 18 -21 11 -6 29 -32 41 -58 12 -26 25 -45 27
-42 10 9 -26 73 -56 102 -17 16 -30 24 -30 19z"/>
<path d="M1543 1973 c-11 -50 -8 -162 5 -193 7 -18 8 -1 5 65 -3 50 -1 107 5
128 6 20 6 37 2 37 -5 0 -13 -17 -17 -37z"/>
<path d="M1597 1883 c-10 -9 -9 -73 1 -73 4 0 7 18 7 40 1 22 0 40 0 40 -1 0
-5 -3 -8 -7z"/>
</g>
</svg>
